# xmcd CD database file
#
# Track frame offsets:
#	150
#	24765
#	61575
#	89400
#	119025
#	153525
#	189933
#	218475
#
# Disc length: 3201 seconds
#
# Revision: 0
# Processed by: cddbd v1.5.2PL0 Copyright (c) Steve Scherf et al.
# Submitted via: CDex 1.70beta2
#
DISCID=5d0c7f08
DTITLE=Andy Herrmann - Looking Back
DYEAR=2007
DGENRE=Jazz
TTITLE0=Valse
TTITLE1=Hymn To A Lost Love
TTITLE2=Fair Play
TTITLE3=Looking Back
TTITLE4=Looking Forward
TTITLE5=Honesty
TTITLE6=Hope
TTITLE7=Indecision
EXTD=YEAR: 2007
EXTT0=
EXTT1=
EXTT2=
EXTT3=
EXTT4=
EXTT5=
EXTT6=
EXTT7=
PLAYORDER=
